<svg xmlns="http://www.w3.org/2000/svg" viewBox="0 -69 295 295">
  <g fill="#F32735">
    <path d="M70.14,89.18,39,84.41c-9.54-1.58-15.22-5.67-15.22-14.3,0-4.53,2.28-8.61,6.36-12C35.41,54,42.68,52.4,49.7,52.4c7.73,0,15,2.5,19.76,6.82a20.32,20.32,0,0,1,6.8,14.07h19.3a36.27,36.27,0,0,0-8-21.79C79.68,41.28,65.37,36.06,49.7,36.06c-14.29,0-27.47,5.46-34.95,13.16a31,31,0,0,0-9.3,22c0,7.48,2.26,14.52,6.8,19.73,5,5.46,12.26,9.32,21.11,10.67L62.64,106c12.27,1.82,17,8.4,17,15.88A14.89,14.89,0,0,1,74,133.67c-5.92,5-14.53,6.58-22.48,6.58-9.09,0-16.8-1.59-22.25-5.67s-9.76-9.76-10-17.71H0a37.85,37.85,0,0,0,11.35,26.56c10.22,10,23.6,13.4,39.27,13.4s30.41-4.32,39.26-13.4A31.56,31.56,0,0,0,99,120.51C99,101.22,84,91.22,70.14,89.18Z"/>
    <polygon points="159.7 55.36 140.18 55.36 140.18 36.53 109.88 36.53 109.88 55.36 140.18 55.36 140.18 135.79 104.6 135.79 104.6 153.88 194.97 153.88 194.97 135.79 159.7 135.79 159.7 55.36"/>
    <path d="M266.59,89.18l-31.11-4.77c-9.53-1.58-15.21-5.67-15.21-14.3,0-4.53,2.28-8.61,6.36-12,5.23-4.09,12.49-5.68,19.52-5.68,7.72,0,15,2.5,19.76,6.82a20.32,20.32,0,0,1,6.8,14.07H292a36.2,36.2,0,0,0-7.94-21.79c-7.93-10.22-22.24-15.44-37.91-15.44-14.29,0-27.47,5.46-35,13.16a30.93,30.93,0,0,0-9.3,22c0,7.48,2.25,14.52,6.8,19.73,5,5.46,12.26,9.32,21.11,10.67L259.09,106c12.27,1.82,17,8.4,17,15.88a14.89,14.89,0,0,1-5.68,11.81c-5.91,5-14.52,6.58-22.47,6.58-9.1,0-16.8-1.59-22.26-5.67s-9.75-9.76-10-17.71H196.45a37.8,37.8,0,0,0,11.35,26.56c10.22,10,23.6,13.4,39.27,13.4s30.41-4.32,39.26-13.4a31.6,31.6,0,0,0,9.09-22.92C295.42,101.22,280.43,91.22,266.59,89.18Z"/>
    <rect x="140.18" width="19.52" height="19.6"/>
  </g>
</svg>
